<svg width="10" height="12" viewBox="0 0 10 12" fill="none" xmlns="http://www.w3.org/2000/svg">
<path d="M1.132 12C1.02533 12 0.934667 11.9627 0.86 11.888C0.785333 11.8133 0.748 11.7227 0.748 11.616V1.2C0.748 1.08267 0.785333 0.986666 0.86 0.912C0.934667 0.837333 1.02533 0.799999 1.132 0.799999H5.42C6.252 0.799999 6.97733 0.933333 7.596 1.2C8.21467 1.456 8.69467 1.85067 9.036 2.384C9.37733 2.90667 9.548 3.56267 9.548 4.352C9.548 5.152 9.37733 5.81333 9.036 6.336C8.69467 6.848 8.21467 7.232 7.596 7.488C6.97733 7.744 6.252 7.872 5.42 7.872H3.036V11.616C3.036 11.7227 2.99867 11.8133 2.924 11.888C2.86 11.9627 2.76933 12 2.652 12H1.132ZM3.004 6.096H5.34C5.95867 6.096 6.43333 5.952 6.764 5.664C7.09467 5.36533 7.26 4.928 7.26 4.352C7.26 3.81867 7.10533 3.392 6.796 3.072C6.48667 2.74133 6.00133 2.576 5.34 2.576H3.004V6.096Z" fill="#2959CE"/>
</svg>
